<svg version="1.1" id="Layer_1" xmlns="http://www.w3.org/2000/svg" xmlns:xlink="http://www.w3.org/1999/xlink" x="0px" y="0px"
	 width="100%" viewBox="0 0 500 500" enable-background="new 0 0 500 500" xml:space="preserve">
<path fill="#121212" opacity="1.000000" stroke="none" 
	d="
M287.000000,501.000000 
	C192.666687,501.000000 98.833351,500.976044 5.000189,501.095673 
	C1.576161,501.100037 0.903036,500.423828 0.905301,497.000000 
	C1.013778,333.000092 1.013756,169.000122 0.905337,5.000249 
	C0.903074,1.576954 1.575787,0.903021 4.999874,0.905286 
	C168.999756,1.013775 332.999725,1.013761 496.999634,0.905353 
	C500.422668,0.903091 501.096985,1.575426 501.094727,4.999755 
	C500.986206,168.999634 500.986237,332.999603 501.094604,496.999512 
	C501.096893,500.422272 500.425690,501.102814 497.000244,501.096497 
	C427.167023,500.967896 357.333466,501.000000 287.000000,501.000000 
z"/>
<path fill="#3297F6" opacity="1.000000" stroke="none" 
	d="
M139.511810,187.808929 
	C142.919540,186.305481 146.033173,187.016159 149.615570,187.841339 
	C152.713165,186.840256 155.462265,187.777420 158.534164,187.812088 
	C159.115326,188.074127 159.307526,188.097870 159.787918,188.085434 
	C163.708496,186.819946 167.431656,187.695038 171.513824,187.808929 
	C176.531586,186.474930 181.111542,187.296112 185.732880,188.106140 
	C187.480148,188.412415 189.327362,188.148361 191.607498,188.092743 
	C195.714783,186.829971 199.431549,187.689957 203.507904,187.809082 
	C206.740662,186.180008 209.835754,187.262451 212.815872,187.323669 
	C214.819504,187.364822 216.809052,187.879868 218.816010,188.006332 
	C228.270355,188.602112 239.622711,199.505173 237.948868,207.659943 
	C238.186172,208.221848 238.357834,208.377518 238.793243,208.759644 
	C239.056992,208.986084 238.999435,208.995468 239.018768,208.973633 
	C239.134140,209.199387 239.230179,209.446976 239.108948,210.028458 
	C238.891678,210.362335 238.949814,210.499878 238.920044,210.568359 
	C239.056412,210.923706 239.222549,211.210587 239.138672,211.927322 
	C238.888672,212.357162 238.934982,212.601196 238.874146,212.709488 
	C238.213379,214.694412 238.554031,216.612122 238.691742,218.851410 
	C238.818909,219.187408 238.940491,219.397934 238.916321,219.517059 
	C239.057678,219.923370 239.223175,220.210541 239.140778,220.928696 
	C238.892868,221.359665 238.940369,221.598343 238.878845,221.703323 
	C238.650879,222.099182 238.595245,222.409882 238.733276,222.966217 
	C238.816147,223.191986 238.939499,223.404068 238.916321,223.524536 
	C239.058304,223.929398 239.223495,224.213791 239.141571,224.925201 
	C238.894470,225.352203 238.940842,225.621552 238.879181,225.743500 
	C238.135681,229.031006 238.615967,232.229889 238.688049,235.785980 
	C238.832199,236.158997 238.953369,236.382370 238.927917,236.506866 
	C239.064529,236.920990 239.226608,237.210632 239.146210,237.935104 
	C238.903763,238.369934 238.955444,238.613266 238.894608,238.721741 
	C238.652771,239.107574 238.592194,239.409103 238.742645,239.951935 
	C238.833267,240.169022 238.955246,240.387573 238.929779,240.510101 
	C239.065750,240.921539 239.227219,241.210480 239.145996,241.932526 
	C238.903320,242.365646 238.963959,242.500229 238.933533,242.567474 
	C239.064957,242.923172 239.226822,243.211594 239.145630,243.932526 
	C238.902573,244.365005 238.952805,244.625290 238.891830,244.742981 
	C238.185562,246.715424 238.570847,248.619400 238.692673,250.835876 
	C238.824051,251.167221 238.946457,251.388824 238.921875,251.513000 
	C239.061096,251.924896 239.224884,252.212646 239.141876,252.931366 
	C238.895096,253.362366 238.943634,253.597107 238.882599,253.700256 
	C238.650314,254.096710 238.594177,254.410583 238.737534,254.973083 
	C238.821960,255.201111 238.943985,255.404648 238.919586,255.520782 
	C239.059662,255.924438 239.224136,256.211975 239.141922,256.930786 
	C238.895218,257.362091 238.943802,257.612854 238.882965,257.725159 
	C238.131958,261.014099 238.617081,264.224854 238.684540,267.795471 
	C238.824799,268.171539 238.946075,268.390900 238.921478,268.513794 
	C239.060822,268.924500 239.224731,269.212280 239.142807,269.931824 
	C238.896957,270.363525 238.946014,270.599060 238.884979,270.702728 
	C238.647522,271.099457 238.591461,271.413940 238.739960,271.978851 
	C238.824188,272.207825 238.945236,272.406128 238.920166,272.519562 
	C239.059616,272.922058 239.224136,273.211151 239.141190,273.933502 
	C238.893738,274.366730 238.953720,274.500122 238.923615,274.566772 
	C239.058578,274.922058 239.223633,275.210754 239.141174,275.932495 
	C238.893661,276.365540 238.943237,276.604645 238.883087,276.710876 
	C238.203293,278.692078 238.558945,280.611328 238.690460,282.851135 
	C238.816833,283.187622 238.937714,283.402374 238.914215,283.523315 
	C239.056702,283.929321 239.222687,284.214355 239.139465,284.926819 
	C238.890274,285.354218 238.935944,285.592407 238.874329,285.696838 
	C238.647446,286.097504 238.594177,286.412689 238.734344,286.976288 
	C238.815720,287.205811 238.938828,287.408386 238.915375,287.524597 
	C239.057465,287.924713 239.223038,288.208679 239.139877,288.918396 
	C238.891129,289.344147 238.935608,289.608887 238.875076,289.728699 
	C238.245972,291.692657 238.656204,293.690094 237.872711,295.825195 
	C239.077560,298.776917 237.424850,300.724518 236.067261,302.559692 
	C231.935318,308.145294 227.858932,313.919220 219.399261,313.917603 
	C217.619293,315.078766 215.936371,314.182251 214.062988,314.684174 
	C213.682678,314.793121 213.531189,314.922180 213.441711,314.878662 
	C213.053619,315.019623 212.754974,315.204132 211.988052,315.147888 
	C211.519760,314.907166 211.480331,314.980042 211.495270,314.939087 
	C202.387253,314.103790 193.243988,314.557709 184.112015,314.528656 
	C167.995773,314.477417 151.878738,314.506622 135.290222,314.647217 
	C127.472878,315.755157 120.117035,314.873413 112.796371,314.569000 
	C106.912216,314.324280 97.426735,304.616943 96.124771,298.494476 
	C95.717964,296.581482 93.993256,295.004120 94.869720,292.403473 
	C93.834030,282.085205 94.572266,272.145325 94.514473,262.223755 
	C94.416801,245.455719 94.374496,228.686569 94.801865,211.482117 
	C94.366219,198.415024 106.293121,185.170639 120.350861,188.088913 
	C122.884003,188.614761 124.829086,185.363052 127.643677,187.878662 
	C131.722641,186.806366 135.439285,187.701797 139.511810,187.808929 
z"/>
<path fill="#E4FEFF" opacity="1.000000" stroke="none" 
	d="
M94.676643,211.130157 
	C95.037491,237.713959 95.036629,264.381958 95.040619,291.518494 
	C92.446327,287.374817 93.978882,282.225189 93.728264,277.452881 
	C93.108818,265.656891 93.865517,253.814621 93.432549,241.942612 
	C93.088387,232.505722 94.255211,222.942337 93.447685,213.412857 
	C93.388092,212.709579 94.009918,211.948547 94.676643,211.130157 
z"/>
<path fill="#CEF2FF" opacity="1.000000" stroke="none" 
	d="
M135.235535,314.843201 
	C135.416168,314.515106 136.014374,314.046265 136.611725,314.047363 
	C161.357498,314.092285 186.103165,314.179382 211.179535,314.579681 
	C203.395111,314.917328 195.279938,314.920563 187.164932,314.959320 
	C173.999512,315.022247 160.834259,315.133820 147.668777,315.169586 
	C143.663681,315.180450 139.658066,315.009369 135.235535,314.843201 
z"/>
<path fill="#D0D0D0" opacity="1.000000" stroke="none" 
	d="
M366.097717,282.407349 
	C366.204102,280.990356 366.268860,279.999573 366.333649,279.008789 
	C366.463409,279.010010 366.593201,279.011261 366.722961,279.012512 
	C366.722961,286.364563 366.722961,293.716644 366.722961,301.068695 
	C366.500671,301.080994 366.278412,301.093292 366.056122,301.105591 
	C366.056122,295.014893 366.056122,288.924225 366.097717,282.407349 
z"/>
<path fill="#FCFCFC" opacity="1.000000" stroke="none" 
	d="
M349.872345,284.931641 
	C349.966614,290.674927 349.966614,296.018311 349.966614,301.361725 
	C349.149323,295.741364 347.343353,290.116211 349.872345,284.931641 
z"/>
<path fill="#B7B7B7" opacity="1.000000" stroke="none" 
	d="
M316.485657,257.247131 
	C315.279633,252.293839 316.495758,247.563843 316.840698,242.792923 
	C316.840698,247.667786 316.840698,252.542648 316.485657,257.247131 
z"/>
<path fill="#989898" opacity="1.000000" stroke="none" 
	d="
M307.134644,296.949463 
	C304.521210,296.949677 302.095245,297.206543 303.289642,293.621063 
	C305.586182,298.354462 310.177765,294.776184 314.129028,296.950714 
	C311.377228,296.950714 309.473114,296.950714 307.134644,296.949463 
z"/>
<path fill="#FFFFFF" opacity="1.000000" stroke="none" 
	d="
M203.806152,187.654388 
	C200.270370,188.039749 196.631775,188.034546 192.539566,188.035263 
	C195.816116,185.655411 199.811066,187.227127 203.806152,187.654388 
z"/>
<path fill="#FFFFFF" opacity="1.000000" stroke="none" 
	d="
M171.810333,187.654709 
	C168.272171,188.042114 164.628479,188.039505 160.530457,188.043076 
	C163.808350,185.653397 167.808365,187.226685 171.810333,187.654709 
z"/>
<path fill="#FFFFFF" opacity="1.000000" stroke="none" 
	d="
M139.808472,187.654419 
	C136.277069,188.039627 132.641266,188.034607 128.553116,188.044312 
	C131.821106,185.641769 135.816010,187.233047 139.808472,187.654419 
z"/>
<path fill="#989898" opacity="1.000000" stroke="none" 
	d="
M296.135986,296.163727 
	C296.183167,294.427521 296.183167,293.128052 296.183167,291.828583 
	C296.372498,291.825897 296.561829,291.823212 296.751160,291.820526 
	C296.751160,295.292297 296.751160,298.764038 296.751160,302.235779 
	C296.530365,302.261475 296.309570,302.287140 296.088776,302.312836 
	C296.088776,300.408722 296.088776,298.504578 296.135986,296.163727 
z"/>
<path fill="#7C7C7C" opacity="1.000000" stroke="none" 
	d="
M317.146606,284.763611 
	C317.147095,282.552307 317.147095,280.755859 317.147095,278.959412 
	C317.316864,278.958862 317.486664,278.958282 317.656433,278.957703 
	C317.656433,281.953613 317.656433,284.949524 317.656433,287.976288 
	C316.728760,287.161163 317.312683,286.102356 317.146606,284.763611 
z"/>
<path fill="#E1E1E1" opacity="1.000000" stroke="none" 
	d="
M318.877686,205.841965 
	C319.049072,209.226898 319.049072,212.205170 319.049072,215.183426 
	C318.328033,211.925552 317.173950,208.680496 318.877686,205.841965 
z"/>
<path fill="#989898" opacity="1.000000" stroke="none" 
	d="
M382.194092,296.934265 
	C379.167755,296.953461 376.542297,296.953461 373.916870,296.953461 
	C373.906860,296.666229 373.896881,296.378967 373.886871,296.091736 
	C376.662048,296.091736 379.437256,296.090637 382.212433,296.094543 
	C382.373596,296.094788 382.551880,296.098663 382.692993,296.163940 
	C383.429352,296.504822 383.018158,296.714508 382.194092,296.934265 
z"/>
<path fill="#FFFFFF" opacity="1.000000" stroke="none" 
	d="
M158.818756,187.661896 
	C156.272369,188.042801 153.621613,188.035217 150.529449,188.034378 
	C152.770538,185.616989 155.837402,187.511856 158.818756,187.661896 
z"/>
<path fill="#B7B7B7" opacity="1.000000" stroke="none" 
	d="
M342.027893,205.053329 
	C343.158630,205.152176 343.967773,205.152176 344.858795,205.152176 
	C342.964233,207.295776 341.144043,207.650543 339.224915,205.167969 
	C340.101715,205.092529 340.904022,205.023514 342.027893,205.053329 
z"/>
<path fill="#91C2ED" opacity="1.000000" stroke="none" 
	d="
M238.869385,267.698944 
	C237.377945,265.017395 238.003693,261.761566 238.586670,258.178406 
	C238.852737,260.967072 238.883347,264.096710 238.869385,267.698944 
z"/>
<path fill="#91C2ED" opacity="1.000000" stroke="none" 
	d="
M238.875977,235.687943 
	C237.368591,233.019241 238.002396,229.775375 238.586243,226.205444 
	C238.851578,228.982590 238.885666,232.099731 238.875977,235.687943 
z"/>
<path fill="#858585" opacity="1.000000" stroke="none" 
	d="
M375.173279,276.176453 
	C377.040314,276.191986 378.503113,276.191986 379.965881,276.191986 
	C379.965363,276.343201 379.964844,276.494446 379.964325,276.645660 
	C377.267212,276.645660 374.570099,276.645660 371.873016,276.645660 
	C371.872559,276.484100 371.872101,276.322510 371.871643,276.160950 
	C372.837463,276.160950 373.803253,276.160950 375.173279,276.176453 
z"/>
<path fill="#858585" opacity="1.000000" stroke="none" 
	d="
M300.396362,276.773254 
	C299.251648,276.889069 298.451355,276.992767 297.649261,277.080078 
	C296.699646,277.183502 297.593719,279.091461 296.176636,278.599182 
	C295.968353,278.526855 295.984283,277.689697 295.968536,277.204041 
	C295.910431,275.414612 297.162720,276.205170 297.999603,276.199463 
	C298.818756,276.193848 299.638550,276.195343 300.456909,276.225708 
	C300.676727,276.233856 300.892242,276.358582 301.109711,276.429749 
	C300.986481,276.537781 300.863220,276.645813 300.396362,276.773254 
z"/>
<path fill="#D0D0D0" opacity="1.000000" stroke="none" 
	d="
M311.515259,287.018555 
	C309.286987,286.993164 307.463745,286.993164 305.479950,286.993164 
	C307.478912,284.487335 309.822052,286.128204 311.947418,286.052734 
	C312.090393,286.047638 312.296997,286.073883 312.370728,286.167175 
	C312.839569,286.760376 312.372437,286.904510 311.515259,287.018555 
z"/>
<path fill="#989898" opacity="1.000000" stroke="none" 
	d="
M339.376953,242.047028 
	C339.710327,244.171997 339.850403,246.613846 339.990509,249.055710 
	C339.721558,249.071136 339.452606,249.086563 339.183655,249.102005 
	C339.183655,246.855972 339.183655,244.609940 339.376953,242.047028 
z"/>
<path fill="#6D6D6D" opacity="1.000000" stroke="none" 
	d="
M293.817230,253.614319 
	C293.759766,254.594742 293.701599,255.226395 293.589264,256.446259 
	C293.082275,253.894104 292.971436,251.936646 293.816559,249.975082 
	C293.816559,251.071899 293.816559,252.168716 293.817230,253.614319 
z"/>
<path fill="#91C2ED" opacity="1.000000" stroke="none" 
	d="
M238.233429,296.015503 
	C237.214523,294.148254 238.122910,292.301605 238.594116,290.119904 
	C238.759552,291.862274 238.704575,293.876068 238.233429,296.015503 
z"/>
<path fill="#797979" opacity="1.000000" stroke="none" 
	d="
M343.707703,276.893677 
	C344.839661,275.093384 346.610657,276.551086 348.262909,276.695618 
	C346.864563,276.768738 345.466187,276.841858 343.707703,276.893677 
z"/>
<path fill="#91C2ED" opacity="1.000000" stroke="none" 
	d="
M238.862320,218.732147 
	C237.581253,217.354034 237.951996,215.394897 238.591125,213.124969 
	C238.844116,214.637482 238.874924,216.457199 238.862320,218.732147 
z"/>
<path fill="#858585" opacity="1.000000" stroke="none" 
	d="
M311.195679,276.792725 
	C309.900330,276.812653 308.927643,276.812653 307.648102,276.812653 
	C308.990631,275.712982 310.197388,276.343140 311.321503,276.241241 
	C311.470337,276.227722 311.629456,276.327271 311.783813,276.374451 
	C311.695312,276.507233 311.606781,276.640015 311.195679,276.792725 
z"/>
<path fill="#91C2ED" opacity="1.000000" stroke="none" 
	d="
M238.867859,250.716156 
	C237.577408,249.349625 237.938171,247.404953 238.601685,245.157578 
	C238.857803,246.662140 238.884735,248.463623 238.867859,250.716156 
z"/>
<path fill="#91C2ED" opacity="1.000000" stroke="none" 
	d="
M238.863586,282.732666 
	C237.574478,281.352020 237.932526,279.391632 238.595276,277.121185 
	C238.852066,278.637329 238.881195,280.457550 238.863586,282.732666 
z"/>
<path fill="#858585" opacity="1.000000" stroke="none" 
	d="
M393.106873,276.352905 
	C394.662720,276.275879 395.912262,276.275879 398.219086,276.275879 
	C395.699310,276.995758 394.245758,277.002045 393.106873,276.352905 
z"/>
<path fill="#858585" opacity="1.000000" stroke="none" 
	d="
M346.231445,254.410492 
	C347.405579,255.121887 346.034180,257.098297 348.421814,257.445557 
	C345.550690,257.853790 346.423187,255.820053 346.231445,254.410492 
z"/>
<path fill="#6D6D6D" opacity="1.000000" stroke="none" 
	d="
M306.889069,203.627258 
	C307.261841,203.251083 307.491882,203.086411 307.721924,202.921738 
	C307.847443,203.373901 308.124176,203.853867 308.047913,204.268951 
	C307.992523,204.570572 307.447296,205.021927 307.160706,204.993958 
	C306.454407,204.925079 305.880432,204.581268 306.889069,203.627258 
z"/>
<path fill="#797979" opacity="1.000000" stroke="none" 
	d="
M354.709381,276.141235 
	C355.340759,276.201324 355.645081,276.263245 355.949432,276.325165 
	C355.061554,277.425110 353.939240,276.763885 352.902527,276.719269 
	C352.791748,276.714508 352.686646,276.577759 352.354462,276.344879 
	C353.168396,276.263855 353.775391,276.203461 354.709381,276.141235 
z"/>
<path fill="#7C7C7C" opacity="1.000000" stroke="none" 
	d="
M317.855133,299.121460 
	C317.830750,299.934570 317.795074,300.424805 317.759399,300.915039 
	C317.636566,300.927490 317.513702,300.939911 317.390869,300.952362 
	C317.390869,299.911469 317.390869,298.870605 317.390869,297.829712 
	C317.466461,297.834595 317.601715,297.822571 317.608612,297.846924 
	C317.697662,298.161102 317.768402,298.480499 317.855133,299.121460 
z"/>
<path fill="#797979" opacity="1.000000" stroke="none" 
	d="
M267.331543,287.156738 
	C267.319824,286.719116 267.383850,286.461884 267.307770,286.410004 
	C266.757782,286.034760 267.267822,285.310974 267.413971,285.936462 
	C267.614014,286.792572 267.616089,287.704041 267.622253,288.592316 
	C267.625183,289.012726 267.418427,288.953735 267.345184,288.403992 
	C267.302765,288.085602 267.340668,287.756470 267.331543,287.156738 
z"/>
<path fill="#CEF2FF" opacity="1.000000" stroke="none" 
	d="
M214.109863,314.867310 
	C214.999130,313.486938 216.683044,314.136719 218.602936,313.923828 
	C217.925217,316.034119 215.995575,314.474304 214.109863,314.867310 
z"/>
<path fill="#797979" opacity="1.000000" stroke="none" 
	d="
M360.918793,276.599213 
	C361.593597,276.152893 362.496521,275.965576 363.775604,276.755768 
	C362.633423,276.755768 361.891907,276.755768 360.918793,276.599213 
z"/>
<path fill="#E1E1E1" opacity="1.000000" stroke="none" 
	d="
M318.117615,199.950470 
	C318.983795,198.986633 318.887390,199.686188 318.799744,200.239777 
	C318.752625,200.537048 318.546570,200.809158 318.412292,201.092636 
	C318.332275,200.808060 318.252289,200.523483 318.117615,199.950470 
z"/>
<path fill="#6D6D6D" opacity="1.000000" stroke="none" 
	d="
M293.428101,243.868774 
	C293.528809,244.237808 293.490662,244.776291 293.452515,245.314789 
	C293.398071,244.889267 293.343658,244.463745 293.428101,243.868774 
z"/>
<path fill="#6D6D6D" opacity="1.000000" stroke="none" 
	d="
M346.546021,211.319763 
	C346.429718,211.195099 346.424347,210.957199 346.418976,210.719299 
	C346.498291,210.881714 346.577637,211.044113 346.546021,211.319763 
z"/>
<path fill="#A8A8A8" opacity="1.000000" stroke="none" 
	d="
M347.518616,263.323364 
	C347.257080,263.916565 346.772705,264.095428 346.284821,263.532043 
	C346.622131,263.395203 346.959473,263.258392 347.518616,263.323364 
z"/>
<path fill="#858585" opacity="1.000000" stroke="none" 
	d="
M367.244873,275.253967 
	C367.950745,275.465546 368.672455,276.061401 367.866180,276.510162 
	C366.920135,277.036713 367.130219,275.963715 367.244873,275.253967 
z"/>
<path fill="#6D6D6D" opacity="1.000000" stroke="none" 
	d="
M293.195984,238.709991 
	C293.037506,238.014893 293.172760,237.612686 293.307983,237.210480 
	C293.528503,237.299042 293.854584,237.324936 293.950958,237.487228 
	C294.329041,238.123932 294.017059,238.609467 293.195984,238.709991 
z"/>
<path fill="#797979" opacity="1.000000" stroke="none" 
	d="
M267.262756,293.440338 
	C267.892517,293.648926 268.539764,294.316925 267.761169,294.710693 
	C266.750214,295.221954 267.067261,294.214966 267.262756,293.440338 
z"/>
<path fill="#7C7C7C" opacity="1.000000" stroke="none" 
	d="
M316.024170,291.091431 
	C315.406433,290.796387 314.735657,290.528687 315.412628,290.141754 
	C315.718842,289.966736 316.275360,289.964264 316.592316,290.127747 
	C317.288605,290.487000 316.624695,290.781372 316.024170,291.091431 
z"/>
<path fill="#7C7C7C" opacity="1.000000" stroke="none" 
	d="
M317.273285,293.006317 
	C317.415466,292.298920 317.579102,292.294281 317.725037,292.784698 
	C317.764374,292.917023 317.756775,293.079285 317.721466,293.214996 
	C317.591644,293.713959 317.434387,293.714600 317.273285,293.006317 
z"/>
<path fill="#797979" opacity="1.000000" stroke="none" 
	d="
M266.750000,291.250000 
	C266.727112,291.777252 266.435242,292.149231 266.126465,291.585510 
	C266.072968,291.487854 266.366669,291.200012 266.750000,291.250000 
z"/>
<path fill="#858585" opacity="1.000000" stroke="none" 
	d="
M399.750000,275.750000 
	C399.222748,275.727112 398.850769,275.435272 399.414490,275.126465 
	C399.512177,275.072968 399.799988,275.366669 399.750000,275.750000 
z"/>
<path fill="#CEF2FF" opacity="1.000000" stroke="none" 
	d="
M211.748260,315.165741 
	C211.821793,314.821259 212.123840,314.735382 212.889069,314.742310 
	C212.963150,315.193542 212.912079,316.341095 211.748260,315.165741 
z"/>
<path fill="#7C7C7C" opacity="1.000000" stroke="none" 
	d="
M316.750000,295.750000 
	C316.222748,295.727112 315.850769,295.435242 316.414490,295.126465 
	C316.512177,295.072998 316.799988,295.366669 316.750000,295.750000 
z"/>
<path fill="#E1E1E1" opacity="1.000000" stroke="none" 
	d="
M318.275452,203.728882 
	C318.280945,203.419281 318.499634,203.345734 318.718323,203.272217 
	C318.641754,203.503128 318.565186,203.734055 318.275452,203.728882 
z"/>
<path fill="#6D6D6D" opacity="1.000000" stroke="none" 
	d="
M303.750000,205.750000 
	C303.222748,205.727112 302.850739,205.435242 303.414490,205.126465 
	C303.512146,205.072952 303.799988,205.366669 303.750000,205.750000 
z"/>
<path fill="#858585" opacity="1.000000" stroke="none" 
	d="
M387.750000,276.250000 
	C387.727112,276.777252 387.435242,277.149231 387.126465,276.585510 
	C387.072968,276.487823 387.366669,276.200012 387.750000,276.250000 
z"/>
<path fill="#91C2ED" opacity="1.000000" stroke="none" 
	d="
M239.199799,212.195984 
	C238.835648,212.070816 238.782608,211.784470 238.809937,211.067474 
	C239.328140,211.000275 240.382370,211.090057 239.199799,212.195984 
z"/>
<path fill="#91C2ED" opacity="1.000000" stroke="none" 
	d="
M239.202972,289.187836 
	C238.838684,289.060638 238.786224,288.777130 238.812836,288.067200 
	C239.331589,288.000427 240.376663,288.088928 239.202972,289.187836 
z"/>
<path fill="#91C2ED" opacity="1.000000" stroke="none" 
	d="
M238.854202,286.854614 
	C238.708313,286.836517 238.600891,286.467255 238.653107,285.949615 
	C238.839386,286.035278 238.866028,286.269318 238.854202,286.854614 
z"/>
<path fill="#91C2ED" opacity="1.000000" stroke="none" 
	d="
M239.201202,285.194214 
	C238.838409,285.069672 238.786560,284.785095 238.812714,284.072388 
	C239.332397,284.002716 240.382431,284.089172 239.201202,285.194214 
z"/>
<path fill="#91C2ED" opacity="1.000000" stroke="none" 
	d="
M239.168854,210.216721 
	C238.857269,210.121140 238.822845,209.879929 238.913269,209.295258 
	C239.758041,209.112076 240.164322,209.386673 239.168854,210.216721 
z"/>
<path fill="#91C2ED" opacity="1.000000" stroke="none" 
	d="
M238.971451,208.744324 
	C238.685867,208.996979 238.406860,208.842041 238.117233,208.293732 
	C238.304977,208.211655 238.595444,208.357117 238.971451,208.744324 
z"/>
<path fill="#91C2ED" opacity="1.000000" stroke="none" 
	d="
M238.861099,254.851669 
	C238.712738,254.832275 238.603516,254.463455 238.657928,253.949020 
	C238.847763,254.036346 238.873993,254.269287 238.861099,254.851669 
z"/>
<path fill="#91C2ED" opacity="1.000000" stroke="none" 
	d="
M238.855896,222.846100 
	C238.709366,222.827179 238.602570,222.462387 238.656540,221.952942 
	C238.843414,222.038925 238.869537,222.269562 238.855896,222.846100 
z"/>
<path fill="#91C2ED" opacity="1.000000" stroke="none" 
	d="
M239.204559,225.192505 
	C238.842606,225.068146 238.790726,224.784073 238.815994,224.072479 
	C239.334930,224.002518 240.379303,224.090195 239.204559,225.192505 
z"/>
<path fill="#858585" opacity="1.000000" stroke="none" 
	d="
M350.250000,256.250000 
	C350.777252,256.272888 351.149200,256.564728 350.585510,256.873535 
	C350.487885,256.927032 350.200012,256.633331 350.250000,256.250000 
z"/>
<path fill="#989898" opacity="1.000000" stroke="none" 
	d="
M338.250000,256.250000 
	C338.777252,256.272888 339.149200,256.564728 338.585510,256.873535 
	C338.487823,256.927032 338.200012,256.633331 338.250000,256.250000 
z"/>
<path fill="#91C2ED" opacity="1.000000" stroke="none" 
	d="
M239.204132,257.198364 
	C238.841827,257.074982 238.788422,256.787872 238.815125,256.068848 
	C239.332321,256.000641 240.381516,256.093781 239.204132,257.198364 
z"/>
<path fill="#989898" opacity="1.000000" stroke="none" 
	d="
M338.250000,254.250000 
	C338.777252,254.272888 339.149261,254.564743 338.585510,254.873535 
	C338.487854,254.927048 338.200012,254.633331 338.250000,254.250000 
z"/>
<path fill="#91C2ED" opacity="1.000000" stroke="none" 
	d="
M239.202728,221.197021 
	C238.838806,221.072861 238.784760,220.786057 238.811432,220.067719 
	C239.329788,219.999832 240.380432,220.091461 239.202728,221.197021 
z"/>
<path fill="#91C2ED" opacity="1.000000" stroke="none" 
	d="
M239.203796,253.198700 
	C238.842056,253.075180 238.789001,252.788010 238.816620,252.069000 
	C239.334641,252.000900 240.381149,252.096573 239.203796,253.198700 
z"/>
<path fill="#989898" opacity="1.000000" stroke="none" 
	d="
M338.750000,251.750000 
	C338.222748,251.727112 337.850739,251.435242 338.414490,251.126450 
	C338.512146,251.072952 338.799988,251.366669 338.750000,251.750000 
z"/>
<path fill="#6D6D6D" opacity="1.000000" stroke="none" 
	d="
M292.750000,247.750000 
	C292.222748,247.727112 291.850769,247.435272 292.414490,247.126480 
	C292.512177,247.072968 292.800018,247.366653 292.750000,247.750000 
z"/>
<path fill="#91C2ED" opacity="1.000000" stroke="none" 
	d="
M239.209717,238.202240 
	C238.849030,238.080627 238.794312,237.791321 238.821030,237.066681 
	C239.335571,236.999146 240.379425,237.100021 239.209717,238.202240 
z"/>
<path fill="#91C2ED" opacity="1.000000" stroke="none" 
	d="
M239.209213,244.199493 
	C238.848953,244.077011 238.795349,243.789032 238.822433,243.067902 
	C239.337677,243.000290 240.379288,243.099991 239.209213,244.199493 
z"/>
<path fill="#91C2ED" opacity="1.000000" stroke="none" 
	d="
M238.872192,239.834351 
	C238.722778,239.813278 238.612289,239.457520 238.667786,238.966003 
	C238.859543,239.053375 238.885330,239.276520 238.872192,239.834351 
z"/>
<path fill="#6D6D6D" opacity="1.000000" stroke="none" 
	d="
M292.750000,241.250000 
	C292.727112,241.777298 292.435272,242.149231 292.126465,241.585510 
	C292.072998,241.487839 292.366669,241.199997 292.750000,241.250000 
z"/>
<path fill="#91C2ED" opacity="1.000000" stroke="none" 
	d="
M239.209763,242.199768 
	C238.849487,242.077194 238.795654,241.788742 238.823059,241.066452 
	C239.337296,240.999695 240.379242,241.100845 239.209763,242.199768 
z"/>
<path fill="#91C2ED" opacity="1.000000" stroke="none" 
	d="
M239.205261,270.199097 
	C238.843613,270.076172 238.790268,269.788788 238.816910,269.069031 
	C239.333710,269.000671 240.381165,269.095276 239.205261,270.199097 
z"/>
<path fill="#858585" opacity="1.000000" stroke="none" 
	d="
M382.250000,275.750000 
	C382.272888,275.222748 382.564728,274.850769 382.873535,275.414490 
	C382.927032,275.512115 382.633301,275.799988 382.250000,275.750000 
z"/>
<path fill="#858585" opacity="1.000000" stroke="none" 
	d="
M369.250000,275.250000 
	C369.777252,275.272888 370.149231,275.564758 369.585510,275.873535 
	C369.487854,275.927063 369.200012,275.633331 369.250000,275.250000 
z"/>
<path fill="#797979" opacity="1.000000" stroke="none" 
	d="
M358.750000,275.750000 
	C358.222748,275.727112 357.850769,275.435242 358.414490,275.126465 
	C358.512146,275.072937 358.799988,275.366669 358.750000,275.750000 
z"/>
<path fill="#797979" opacity="1.000000" stroke="none" 
	d="
M350.250000,275.250000 
	C350.777252,275.272888 351.149200,275.564728 350.585510,275.873535 
	C350.487854,275.927002 350.200012,275.633331 350.250000,275.250000 
z"/>
<path fill="#858585" opacity="1.000000" stroke="none" 
	d="
M305.750000,275.750000 
	C305.222748,275.727112 304.850769,275.435272 305.414490,275.126465 
	C305.512177,275.072968 305.799988,275.366669 305.750000,275.750000 
z"/>
<path fill="#858585" opacity="1.000000" stroke="none" 
	d="
M303.250000,275.250000 
	C303.777252,275.272888 304.149231,275.564728 303.585510,275.873535 
	C303.487885,275.927032 303.200012,275.633331 303.250000,275.250000 
z"/>
<path fill="#91C2ED" opacity="1.000000" stroke="none" 
	d="
M239.202682,276.200500 
	C238.839417,276.077301 238.785156,275.789032 238.812195,275.067078 
	C239.329239,274.999512 240.382324,275.093414 239.202682,276.200500 
z"/>
<path fill="#91C2ED" opacity="1.000000" stroke="none" 
	d="
M239.202454,274.201355 
	C238.839569,274.078125 238.785416,273.789551 238.813202,273.066986 
	C239.330658,272.999573 240.382324,273.095581 239.202454,274.201355 
z"/>
<path fill="#91C2ED" opacity="1.000000" stroke="none" 
	d="
M238.863312,271.857483 
	C238.713913,271.837463 238.603653,271.467133 238.658676,270.951599 
	C238.850128,271.039948 238.876282,271.273529 238.863312,271.857483 
z"/>
<path fill="#858585" opacity="1.000000" stroke="none" 
	d="
M390.250000,275.250000 
	C390.777252,275.272888 391.149231,275.564758 390.585510,275.873535 
	C390.487854,275.927032 390.200012,275.633331 390.250000,275.250000 
z"/>
<path fill="#A8A8A8" opacity="1.000000" stroke="none" 
	d="
M349.748779,264.249878 
	C349.798401,264.632324 349.511536,264.924652 349.414490,264.871368 
	C348.853485,264.563202 349.224426,264.272308 349.748779,264.249878 
z"/>
<path fill="#6D6D6D" opacity="1.000000" stroke="none" 
	d="
M347.750000,213.750000 
	C347.222748,213.727112 346.850739,213.435257 347.414490,213.126480 
	C347.512177,213.072968 347.799988,213.366669 347.750000,213.750000 
z"/>
<path fill="#A8A8A8" opacity="1.000000" stroke="none" 
	d="
M351.330933,263.328125 
	C351.626770,263.290497 351.854156,263.464355 351.832275,263.505402 
	C351.604523,263.932739 351.358917,263.914520 351.330933,263.328125 
z"/>
<path fill="#6D6D6D" opacity="1.000000" stroke="none" 
	d="
M346.250000,216.250000 
	C346.777252,216.272888 347.149261,216.564758 346.585510,216.873535 
	C346.487854,216.927048 346.200012,216.633331 346.250000,216.250000 
z"/>
<path fill="#409EF6" opacity="1.000000" stroke="none" 
	d="
M133.027084,229.080994 
	C141.163681,220.569214 149.400253,212.389496 157.647278,204.220352 
	C158.345337,203.528900 159.211990,202.990051 159.833694,202.241852 
	C165.835098,195.019455 173.454697,196.457657 176.887451,205.562119 
	C177.357895,206.809845 177.386078,208.195923 178.845840,208.773743 
	C185.808441,211.529678 189.753433,217.820801 194.999451,222.583847 
	C196.336716,223.797989 197.486511,225.218628 198.864014,226.858002 
	C199.133102,229.415817 196.414810,229.390198 195.651855,231.361603 
	C195.109375,231.953888 194.764297,232.258728 194.112915,232.742233 
	C184.884216,238.143021 183.731445,252.041809 191.892914,260.026031 
	C192.563416,260.519012 192.913864,260.840454 193.476013,261.455780 
	C196.061584,266.004700 201.096634,265.170898 204.743546,267.676575 
	C204.254837,274.708557 198.632996,274.242767 193.714417,275.464661 
	C193.864639,277.371735 195.582031,279.089294 194.975082,281.559875 
	C192.792633,284.226135 190.104584,283.171997 187.566574,283.100281 
	C186.435104,283.068329 184.779709,282.106720 185.147827,284.817200 
	C187.221634,287.860779 186.916763,289.885193 183.278381,290.301788 
	C180.897141,290.574463 180.256241,291.400024 180.670425,293.825439 
	C181.306442,297.549805 179.715714,300.311279 176.007935,301.574158 
	C172.108231,302.902374 165.921936,301.317383 164.138336,298.572784 
	C162.665314,296.306030 162.706757,294.140625 164.879013,292.367279 
	C167.062836,290.584503 169.164215,288.706665 171.496094,287.089783 
	C175.304352,284.449219 176.292038,280.645813 174.136688,277.781036 
	C171.699371,274.541473 167.202805,274.476715 163.715805,277.824707 
	C160.041763,281.352264 157.168991,285.294312 157.431458,290.832123 
	C157.531860,292.950409 157.344696,295.261139 154.391617,296.094360 
	C146.462494,286.428467 137.478043,278.188416 128.894867,269.569550 
	C128.089905,268.761230 126.789825,268.340363 127.798843,266.578308 
	C128.830765,264.382874 130.680222,264.810120 132.258606,264.547729 
	C136.293839,263.876862 140.085068,260.411926 140.445038,256.903778 
	C140.880981,252.655441 137.940109,250.766800 134.789749,248.965759 
	C132.288483,247.535797 129.435333,247.205215 126.837105,246.076675 
	C120.398071,243.279877 118.291985,239.492416 120.723854,234.712784 
	C123.255249,229.737549 129.845917,228.108688 135.018097,231.201599 
	C135.878082,231.715866 136.593567,232.426056 137.402725,233.369919 
	C136.539886,231.205521 134.145096,231.063324 133.027084,229.080994 
z"/>
<path fill="#4A9CE6" opacity="1.000000" stroke="none" 
	d="
M153.957260,296.354797 
	C156.053986,295.003021 156.214142,293.133270 155.971436,291.298462 
	C154.891006,283.130524 160.395752,278.620636 165.612198,274.074036 
	C167.926346,272.057098 174.253403,274.264435 176.334091,277.452148 
	C178.164139,280.255859 176.713226,286.687317 173.381424,287.833344 
	C169.890686,289.033997 168.175751,292.165222 165.178741,293.918701 
	C162.303711,295.600800 165.118057,298.670044 166.791000,299.313873 
	C169.390106,300.314087 172.354202,301.302917 175.401321,300.365448 
	C179.970078,298.959808 180.598785,296.266052 177.775009,289.562225 
	C179.451767,288.527039 181.312531,289.041351 183.076248,289.012238 
	C186.987823,288.947571 184.874176,287.156006 184.217407,285.121765 
	C187.252426,282.809265 190.515472,285.806824 193.746979,283.758301 
	C194.318329,283.667755 194.553940,283.671387 195.105011,283.841675 
	C195.946945,284.528442 196.270050,285.156647 196.398438,286.237427 
	C195.050476,289.158997 192.803940,290.353485 191.134369,290.760895 
	C198.662170,288.042206 207.626877,285.896332 213.480499,277.125702 
	C217.367584,278.359528 215.925964,280.243774 214.463058,281.971619 
	C213.125961,283.550842 212.625244,285.150452 215.017273,285.737213 
	C218.616257,286.619995 221.044022,290.450226 226.051483,288.974335 
	C223.736923,292.285583 220.783493,291.825043 218.501556,292.692291 
	C207.615417,296.829498 196.896729,301.833618 185.633240,304.397949 
	C178.425537,306.038940 169.496063,307.721954 162.948959,302.775146 
	C157.698059,298.807678 153.916061,298.770294 149.138657,302.194580 
	C148.602234,302.579102 147.856323,302.884338 147.426575,302.092682 
	C146.845917,301.022980 147.396240,300.141724 148.273010,299.549072 
	C150.016937,298.370209 152.586899,298.800171 153.957260,296.354797 
z"/>
<path fill="#409EF6" opacity="1.000000" stroke="none" 
	d="
M119.204140,261.757599 
	C115.256859,259.880493 112.761986,250.438690 114.912933,247.099594 
	C115.928017,245.523819 117.213554,244.370285 119.159363,243.281433 
	C124.056084,244.958725 128.707825,246.568741 133.307434,248.309357 
	C138.525726,250.284103 141.673035,255.114716 140.439102,258.271729 
	C138.388580,263.518005 132.652008,265.901245 125.999893,264.067749 
	C124.003036,263.554169 122.948799,262.286285 121.761505,261.212738 
	C120.832138,260.372467 120.082489,260.452576 119.204140,261.757599 
z"/>
<path fill="#090909" opacity="1.000000" stroke="none" 
	d="
M125.259384,263.803223 
	C128.646530,263.925659 132.046143,264.814148 135.196564,262.460602 
	C137.652603,260.625763 140.934357,258.566071 139.808640,255.466980 
	C138.488678,251.833115 135.174103,249.226883 130.949112,248.491455 
	C126.914520,247.789169 123.163452,246.440140 119.813797,243.314056 
	C119.353699,242.867294 119.204361,242.656158 118.986198,242.258453 
	C118.564453,241.595047 118.517677,241.019424 118.239578,240.232086 
	C118.367508,239.296494 118.658852,238.594101 118.639206,237.627441 
	C118.429962,236.461853 118.528328,235.560287 118.673248,234.335327 
	C118.845085,233.853043 118.892494,233.687820 119.012146,233.275055 
	C119.224167,232.852325 119.363953,232.677109 119.757462,232.281281 
	C120.011192,232.060669 120.044601,232.045441 120.053474,232.029358 
	C120.209763,231.842545 120.357178,231.671799 120.762711,231.282227 
	C121.020828,231.063431 121.028999,231.034424 121.043854,231.031830 
	C121.274696,230.725327 121.544899,230.481476 122.141273,230.347107 
	C123.467728,230.509048 123.828217,229.597549 124.713722,228.892349 
	C126.698311,228.057449 128.429413,227.792664 130.628632,228.505692 
	C131.453049,228.754669 131.875137,228.811493 132.610809,228.807251 
	C137.208633,229.708160 139.466309,232.640015 141.064911,237.098740 
	C138.594788,236.623505 137.557510,235.427185 136.381683,233.860718 
	C134.177368,230.924072 127.669952,229.526581 124.883736,231.539612 
	C122.303909,233.403519 119.993568,235.962143 121.013298,239.706985 
	C122.350151,244.616394 127.021873,244.553940 130.674500,246.033783 
	C134.658798,247.648010 139.519592,247.735550 141.043854,253.286179 
	C142.760773,259.538422 137.827362,266.318939 131.397507,265.572601 
	C130.258514,265.440430 129.705963,266.028168 128.398239,266.207947 
	C127.346207,265.896973 126.749832,265.476196 125.953880,264.518829 
	C125.754303,263.982208 125.263680,264.050903 125.259384,263.803223 
z"/>
<path fill="#6FA9DC" opacity="1.000000" stroke="none" 
	d="
M195.493988,231.255432 
	C195.113266,228.713638 196.895233,228.238266 198.777191,227.396576 
	C205.411682,226.617752 211.586945,227.240295 217.200638,230.735062 
	C217.901718,231.171509 218.760849,231.459717 219.289841,232.047745 
	C221.081909,234.039780 224.445206,236.149109 221.851395,238.988266 
	C219.609528,241.442200 216.577774,239.571548 214.342514,237.685211 
	C206.445801,231.021118 203.547699,230.996155 195.352325,237.621780 
	C194.998337,237.907959 194.411163,237.905685 193.333496,237.856171 
	C194.598572,231.277191 199.778976,228.836502 208.523499,230.582306 
	C212.309448,231.292053 215.099121,233.047546 216.328400,234.578262 
	C215.092438,233.780746 213.367249,230.852005 209.405685,231.242630 
	C204.633621,227.899109 200.405563,231.001160 195.493988,231.255432 
z"/>
<path fill="#6FA9DC" opacity="1.000000" stroke="none" 
	d="
M192.267548,260.575073 
	C186.316010,259.548431 185.953079,254.544724 185.188782,250.175705 
	C183.845886,242.499374 187.517670,234.606445 193.704803,232.142609 
	C194.232834,234.862137 191.884537,236.005630 190.775894,238.247040 
	C188.299057,242.552307 188.100296,246.898773 188.812088,251.372437 
	C188.021164,246.917297 188.593292,242.651001 190.737762,238.297150 
	C191.303009,237.664612 191.725647,237.503693 192.536377,237.671448 
	C192.855927,237.831924 193.038605,238.021103 193.135757,238.112915 
	C191.624268,244.144333 191.973816,250.103378 193.061844,256.818726 
	C192.997070,258.410919 192.742035,259.220154 192.267548,260.575073 
z"/>
<path fill="#6FA9DC" opacity="1.000000" stroke="none" 
	d="
M205.365417,267.940491 
	C200.597351,267.098114 195.719070,267.437897 193.180527,262.198792 
	C193.820114,261.433746 194.262650,261.375153 195.028412,261.553345 
	C196.297699,262.107330 197.096313,262.853333 197.952179,263.019012 
	C197.475693,262.750092 197.195343,262.573914 196.684052,262.216248 
	C196.293533,261.915283 196.140884,261.784790 195.799072,261.412720 
	C195.442978,260.786926 195.374008,260.384583 195.716492,259.459564 
	C199.230331,261.028320 202.887634,261.779785 206.850983,262.811523 
	C207.163895,265.337463 205.491730,265.108856 204.432724,265.253418 
	C207.698776,266.301575 210.619354,261.601929 214.754639,263.701721 
	C212.878510,267.498688 209.116333,267.231781 205.365417,267.940491 
z"/>
<path fill="#4A9CE6" opacity="1.000000" stroke="none" 
	d="
M183.953949,285.044983 
	C182.929306,284.781067 181.891907,284.403809 182.668106,283.104553 
	C183.460144,281.778748 184.655518,280.714020 186.316467,281.316315 
	C188.878601,282.245331 191.491989,281.908600 194.531311,281.968384 
	C198.948151,281.886871 201.827560,279.311768 205.127579,277.627411 
	C207.799973,276.263367 210.409515,273.265228 213.993546,276.535583 
	C214.128448,276.870209 214.035553,276.962555 213.988358,277.007965 
	C209.558319,279.374023 205.217438,281.775177 200.415436,284.031982 
	C199.423767,284.313629 198.749268,284.419037 197.753143,284.619873 
	C197.208023,284.729340 196.986816,284.754944 196.434021,284.750549 
	C195.899704,284.632263 195.696945,284.544006 195.250336,284.230896 
	C195.006500,284.006073 195.000427,284.000000 194.996674,283.998962 
	C191.582123,284.938751 188.048721,283.619141 184.326965,284.773651 
	C184.016006,284.987762 183.974380,285.025635 183.953949,285.044983 
z"/>
<path fill="#000000" opacity="1.000000" stroke="none" 
	d="
M215.008575,263.987366 
	C211.202103,263.126678 208.395081,267.335358 204.474670,266.040314 
	C203.793732,265.815369 202.891479,266.309784 202.205368,265.116699 
	C204.031616,265.181305 205.470566,264.447510 207.054352,263.316650 
	C207.209137,262.945679 207.573624,262.932678 207.745987,262.873169 
	C211.348663,261.920319 213.645386,259.191315 216.830109,257.256531 
	C217.093750,257.039703 217.023300,257.020782 217.025299,257.057190 
	C218.237762,255.935806 219.670074,255.556778 220.765625,256.951904 
	C221.826324,258.302673 220.369766,259.264160 219.612961,260.183502 
	C218.793518,261.178955 217.534332,261.662231 216.229965,262.718506 
	C215.928680,262.979706 215.993088,262.996857 215.993988,262.963562 
	C215.786758,263.193420 215.557358,263.436523 215.132309,263.840302 
	C214.957977,264.021088 215.009995,264.013702 215.008575,263.987366 
z"/>
<path fill="#6FA9DC" opacity="1.000000" stroke="none" 
	d="
M216.288544,262.966766 
	C215.064972,260.271606 218.198486,260.540771 219.118164,258.920563 
	C220.795898,255.964905 218.586441,257.350952 217.383301,257.098358 
	C217.721771,254.428604 219.260391,253.485367 221.558289,255.297562 
	C223.648895,256.946289 222.781799,258.645752 221.168289,260.202728 
	C219.857376,261.467682 218.372025,262.393158 216.288544,262.966766 
z"/>
<path fill="#171717" opacity="1.000000" stroke="none" 
	d="
M124.848633,263.645752 
	C125.410294,263.682953 125.565765,263.809875 125.737915,263.959290 
	C123.687256,265.967010 122.222565,264.158813 120.304504,263.030151 
	C119.819000,262.757843 119.657028,262.623566 119.270248,262.267761 
	C119.045433,262.046265 119.028511,261.976868 118.992538,261.975403 
	C119.722122,260.698792 117.603706,258.733978 119.321274,258.113159 
	C121.318642,257.391205 121.617844,259.747162 122.456726,260.989807 
	C123.088417,261.925507 123.778236,262.821960 124.848633,263.645752 
z"/>
<path fill="#6FA9DC" opacity="1.000000" stroke="none" 
	d="
M216.726028,257.041870 
	C215.649689,260.941254 212.238297,262.061768 208.303192,262.899811 
	C210.746658,260.912384 212.694427,257.723022 216.726028,257.041870 
z"/>
<path fill="#409EF6" opacity="1.000000" stroke="none" 
	d="
M130.922211,228.378143 
	C129.306244,228.763748 127.581535,228.829651 125.429985,228.823288 
	C126.729584,226.755630 128.613678,226.082779 130.922211,228.378143 
z"/>
<path fill="#6FA9DC" opacity="1.000000" stroke="none" 
	d="
M193.030396,256.975708 
	C194.143677,257.106842 195.379486,256.949707 195.961395,258.629150 
	C196.045410,258.952087 195.948013,259.054138 195.899170,259.105042 
	C195.636429,259.297272 195.422531,259.438568 194.829498,259.647583 
	C193.304276,259.572205 192.509644,259.087494 192.742859,257.435730 
	C192.920425,257.095306 192.993195,257.015045 193.030396,256.975708 
z"/>
<path fill="#409EF6" opacity="1.000000" stroke="none" 
	d="
M118.562355,234.289612 
	C118.862137,235.012756 118.926598,236.007248 118.659637,237.182434 
	C118.327827,236.429077 118.327431,235.495010 118.562355,234.289612 
z"/>
<path fill="#409EF6" opacity="1.000000" stroke="none" 
	d="
M118.052673,240.298187 
	C118.915413,240.122910 119.035187,240.734055 118.976349,241.749115 
	C118.617996,241.582748 118.323578,241.090103 118.052673,240.298187 
z"/>
<path fill="#409EF6" opacity="1.000000" stroke="none" 
	d="
M122.137024,230.355011 
	C122.162895,230.611908 121.912491,230.827164 121.360397,231.035843 
	C121.326050,230.790634 121.593399,230.552002 122.137024,230.355011 
z"/>
<path fill="#409EF6" opacity="1.000000" stroke="none" 
	d="
M120.798065,231.148773 
	C120.874336,231.359116 120.727844,231.654785 120.321854,231.981873 
	C120.123100,231.681000 120.294090,231.421265 120.798065,231.148773 
z"/>
<path fill="#409EF6" opacity="1.000000" stroke="none" 
	d="
M119.790924,232.150696 
	C119.864098,232.345398 119.716995,232.630127 119.327133,232.971191 
	C119.129562,232.693008 119.291656,232.430740 119.790924,232.150696 
z"/>
<path fill="#6FA9DC" opacity="1.000000" stroke="none" 
	d="
M215.199615,263.913727 
	C215.125168,263.707123 215.292374,263.393188 215.727249,263.004730 
	C215.810379,263.222290 215.625824,263.514343 215.199615,263.913727 
z"/>
<path fill="#409EF6" opacity="1.000000" stroke="none" 
	d="
M119.136154,262.251465 
	C119.406761,261.990814 119.688278,262.115448 119.935478,262.656128 
	C119.663643,262.861206 119.412277,262.716034 119.136154,262.251465 
z"/>
<path fill="#65A8E2" opacity="1.000000" stroke="none" 
	d="
M179.749603,265.712341 
	C176.881226,271.979584 175.773727,265.723572 174.751465,264.683807 
	C173.316315,263.224182 173.965881,259.825562 171.150650,259.323883 
	C167.095261,258.601196 162.899109,258.555420 158.865860,259.340515 
	C156.391953,259.822052 155.812088,262.482513 154.853043,264.608795 
	C153.994522,266.512238 153.129608,269.387787 150.079468,266.248718 
	C152.376297,263.547180 152.360687,259.795380 155.244766,257.388641 
	C156.371155,256.738708 157.313354,256.628296 158.532990,256.247925 
	C159.319016,256.085297 159.774857,256.048248 160.571747,256.052856 
	C162.178146,256.104370 163.356613,257.350800 165.019165,256.235291 
	C166.251968,255.848816 167.180130,256.348541 168.029358,256.128632 
	C166.440430,255.843155 164.842316,256.195496 162.890381,256.487518 
	C161.455765,255.945679 160.303970,256.036957 159.169861,255.974106 
	C156.277542,255.813766 155.682983,253.921402 156.067093,251.552841 
	C156.324432,249.966064 157.197235,248.512405 157.563690,246.551025 
	C160.124603,242.658249 160.726089,238.371918 162.764618,234.283325 
	C164.309006,232.835495 166.462997,232.545898 166.776688,234.009644 
	C167.944916,239.460587 171.905136,243.986496 171.804962,250.143448 
	C172.261383,251.534027 173.390778,252.007034 174.079819,253.233658 
	C173.686737,252.206039 172.891861,251.942749 172.178909,251.127472 
	C172.200882,247.993698 171.006271,245.461990 170.181198,242.802704 
	C169.266968,239.856064 167.325943,237.345810 167.034729,234.080902 
	C166.904587,232.621780 165.418472,230.220261 163.272552,233.539612 
	C160.770020,237.557205 160.098495,241.964539 157.879623,246.091705 
	C155.559845,252.808075 153.461609,259.253540 150.300003,265.671326 
	C147.219955,265.552551 148.285202,263.749451 148.797516,262.244720 
	C151.126846,255.403320 153.572449,248.600677 155.830353,241.736115 
	C157.156387,237.704712 158.908844,233.909042 160.832611,230.133118 
	C161.601913,228.623169 161.566666,227.052032 163.812668,227.027267 
	C165.925980,227.003967 167.768890,227.134232 168.690140,229.456696 
	C170.213776,233.297714 172.017914,237.040558 173.323059,240.951828 
	C174.952591,245.835266 178.105713,250.367401 177.111755,256.684875 
	C176.546005,258.709137 176.391525,259.958588 177.320648,261.468292 
	C177.557678,261.938843 177.656799,262.123169 177.902710,262.581726 
	C178.505127,263.760193 178.856506,264.722687 179.749603,265.712341 
z"/>
<path fill="#65A8E2" opacity="1.000000" stroke="none" 
	d="
M177.099380,256.892273 
	C181.374191,258.246155 181.618759,261.361450 180.328644,265.118530 
	C178.533813,265.539215 178.228943,264.138550 177.185196,263.213989 
	C176.939148,262.981293 176.977585,263.020447 176.993286,263.042969 
	C176.089172,261.376282 176.594833,259.571014 176.712692,257.497406 
	C176.844635,257.186737 177.014618,256.990540 177.099380,256.892273 
z"/>
<path fill="#000000" opacity="1.000000" stroke="none" 
	d="
M177.028046,263.320557 
	C179.048309,262.062042 178.537231,264.245728 179.645355,265.098572 
	C180.017319,265.244690 179.986206,265.581543 179.977768,265.750488 
	C178.204651,266.193665 177.464844,265.174133 177.028046,263.320557 
z"/>
<path fill="#6FA9DC" opacity="1.000000" stroke="none" 
	d="
M193.915543,231.903900 
	C193.984589,231.536041 194.185669,231.291565 194.688690,231.020081 
	C194.910355,230.927094 194.988129,230.995193 195.024750,231.031647 
	C195.186508,231.506973 195.052780,231.857101 194.385437,232.102249 
	C194.073883,232.073364 193.967331,231.961304 193.915543,231.903900 
z"/>
<path fill="#6FA9DC" opacity="1.000000" stroke="none" 
	d="
M192.941147,262.043335 
	C192.602249,261.954956 192.352585,261.767273 192.039978,261.304657 
	C191.925644,261.098114 192.000549,261.007019 192.040405,260.963562 
	C192.524689,260.821106 192.876541,260.967224 193.099533,261.634430 
	C193.050125,261.945160 192.978989,262.012329 192.941147,262.043335 
z"/>
<path fill="#101010" opacity="1.000000" stroke="none" 
	d="
M198.716064,283.212341 
	C201.609238,281.932800 204.499496,281.591034 206.781952,279.223419 
	C208.196396,277.756195 210.629974,276.640656 213.540405,277.223328 
	C212.567978,281.769745 207.031998,283.162811 205.342285,287.741730 
	C205.130814,288.314758 202.889297,288.171051 201.582611,288.301727 
	C196.559937,288.804138 192.670502,293.256897 186.854004,292.280487 
	C189.367935,289.349182 193.914734,290.018402 195.820847,286.351562 
	C195.555603,285.439850 195.524185,284.913666 196.009567,284.156647 
	C196.348969,283.936462 196.639832,283.992279 196.770599,283.922821 
	C197.402176,283.573669 197.964981,283.516876 198.716064,283.212341 
z"/>
<path fill="#A1CAED" opacity="1.000000" stroke="none" 
	d="
M184.425568,285.031372 
	C187.009537,281.268036 190.902924,283.451202 194.724030,283.697144 
	C191.969696,287.777435 188.250107,284.989807 184.425568,285.031372 
z"/>
<path fill="#C2E6F9" opacity="1.000000" stroke="none" 
	d="
M215.337860,288.951965 
	C213.272064,288.823547 211.237244,289.518951 210.099335,286.746368 
	C212.691833,286.913086 215.062424,286.452759 216.912460,288.528046 
	C216.922485,288.539276 216.758972,288.781982 216.651077,288.807068 
	C216.337799,288.879822 216.011536,288.896759 215.337860,288.951965 
z"/>
<path fill="#A1CAED" opacity="1.000000" stroke="none" 
	d="
M196.009613,283.881897 
	C196.214661,284.382965 196.080353,284.829437 195.855652,285.615601 
	C195.482010,285.489563 195.198746,285.023865 194.960999,284.282104 
	C195.227753,283.946503 195.449005,283.886932 196.009613,283.881897 
z"/>
<path fill="#040404" opacity="1.000000" stroke="none" 
	d="
M194.009918,232.396301 
	C194.362595,231.906281 194.651306,231.739197 195.000702,231.320114 
	C199.639511,229.518234 204.230148,228.114517 209.379623,230.135925 
	C209.711227,230.681122 209.753983,230.959076 209.388199,231.131943 
	C202.826675,229.415085 197.605423,231.468201 193.033417,237.529709 
	C192.560303,237.980316 192.264679,238.128723 191.788239,238.456451 
	C191.332642,238.695908 191.057861,238.756058 190.895187,238.409439 
	C189.543427,234.882507 192.939667,234.465515 194.009918,232.396301 
z"/>
<path fill="#040404" opacity="1.000000" stroke="none" 
	d="
M209.484756,230.546356 
	C214.116745,230.151962 217.442902,232.501648 220.539719,237.546051 
	C218.093369,238.721008 216.646393,237.187775 215.119736,235.668488 
	C213.426239,233.983170 212.064667,231.755020 209.118164,231.361237 
	C208.979675,231.026871 209.301025,230.689560 209.484756,230.546356 
z"/>
<path fill="#040404" opacity="1.000000" stroke="none" 
	d="
M191.474548,238.461212 
	C189.798706,243.441086 188.788239,248.240158 190.928314,253.280838 
	C191.457901,254.528214 190.793549,256.310547 189.425156,256.493713 
	C188.466492,256.622040 188.124664,255.083313 187.952271,253.806198 
	C187.212173,248.323456 185.530914,242.779709 190.638412,238.065887 
	C191.007294,238.002686 191.341705,238.286652 191.474548,238.461212 
z"/>
<path fill="#000000" opacity="1.000000" stroke="none" 
	d="
M193.378525,261.955505 
	C192.892548,261.652496 192.734985,261.359802 192.328842,260.993591 
	C190.919205,259.621643 190.861938,258.394989 192.619141,257.181030 
	C193.062302,257.940735 192.651718,259.162964 194.593643,259.033051 
	C195.603027,259.491638 195.460556,260.186829 195.257019,261.393982 
	C194.577316,261.963623 194.142120,261.964752 193.378525,261.955505 
z"/>
<path fill="#000000" opacity="1.000000" stroke="none" 
	d="
M197.087646,261.568848 
	C198.883591,262.470978 200.295685,263.032715 201.866989,263.657776 
	C199.194138,265.356110 197.166229,264.404510 195.145660,262.290527 
	C195.012512,261.962524 194.980988,262.012299 194.963348,262.035889 
	C195.214111,261.749268 195.448471,261.415100 195.956329,261.074860 
	C196.263412,261.092346 196.703812,261.228455 197.087646,261.568848 
z"/>
<path fill="#90BBE5" opacity="1.000000" stroke="none" 
	d="
M196.220093,260.764618 
	C196.026840,261.411743 195.790283,261.731140 195.249725,262.055023 
	C194.947281,261.305084 194.948853,260.550690 194.950760,259.418945 
	C194.951096,259.041595 195.403244,259.087677 195.626801,259.121826 
	C195.959152,259.582916 196.067947,260.009918 196.220093,260.764618 
z"/>
<path fill="#3297F6" opacity="1.000000" stroke="none" 
	d="
M197.466095,261.790558 
	C197.471481,261.909271 197.089951,261.717041 197.082275,261.609680 
	C197.074600,261.502319 197.460724,261.671844 197.466095,261.790558 
z"/>
<path fill="#A1CAED" opacity="1.000000" stroke="none" 
	d="
M198.639282,283.055298 
	C198.792480,283.829712 198.181885,283.903320 197.219757,283.889832 
	C197.387222,283.599243 197.873062,283.345123 198.639282,283.055298 
z"/>
<path fill="#0B0B0B" opacity="1.000000" stroke="none" 
	d="
M158.736420,246.175491 
	C157.718170,247.205261 158.778137,248.179138 158.464203,248.663498 
	C155.004227,254.001541 157.812180,255.245621 162.614197,255.854340 
	C162.178162,256.596283 161.769165,256.671631 161.071808,256.836487 
	C160.446640,256.970093 160.100037,256.961060 159.493652,256.963684 
	C158.225876,257.051453 157.315002,257.524261 156.083649,257.862488 
	C153.157730,260.079712 154.592285,264.727448 150.401367,265.976013 
	C150.034058,265.906555 149.994080,265.972443 150.031097,265.963348 
	C149.698318,260.153625 153.737701,255.743042 155.033569,250.444962 
	C155.387772,248.996704 155.394547,246.989685 157.596405,246.054153 
	C158.242050,245.913986 158.506485,245.839401 158.736420,246.175491 
z"/>
<path fill="#0B0B0B" opacity="1.000000" stroke="none" 
	d="
M162.874222,234.395935 
	C161.585007,231.845856 161.683975,230.331406 164.400253,229.245712 
	C167.820694,227.878555 167.137238,231.103088 167.339294,232.144241 
	C168.440887,237.820435 172.497803,242.401093 173.057907,248.292816 
	C173.181671,249.594711 172.902542,249.928452 171.988754,250.673172 
	C169.991257,245.617142 166.881165,240.715622 166.673660,234.801407 
	C166.612595,233.060776 165.106796,234.177399 163.908875,234.494141 
	C163.330704,234.752716 163.048019,234.780273 162.874222,234.395935 
z"/>
<path fill="#0B0B0B" opacity="1.000000" stroke="none" 
	d="
M163.469681,234.528091 
	C162.149521,238.507599 160.685654,242.290024 158.961853,246.329315 
	C158.701920,246.586182 158.316360,246.315750 158.146988,246.152161 
	C158.498367,241.710434 159.285904,237.527893 162.607361,234.051453 
	C162.983093,233.984070 163.325974,234.331024 163.469681,234.528091 
z"/>
<path fill="#000000" opacity="1.000000" stroke="none" 
	d="
M176.473862,257.174896 
	C179.164062,258.673431 176.689621,260.841034 177.306076,262.796448 
	C176.023727,261.202850 173.389877,259.593292 176.473862,257.174896 
z"/>
<path fill="#000000" opacity="1.000000" stroke="none" 
	d="
M162.993973,255.960205 
	C165.482849,253.526779 168.164871,256.574310 171.407059,255.506454 
	C169.456726,257.720367 167.408264,256.533875 165.357513,257.055908 
	C164.144836,257.555969 163.427719,257.509369 162.964706,256.331299 
	C163.067245,255.941650 163.005768,255.931381 162.993973,255.960205 
z"/>
<path fill="#000000" opacity="1.000000" stroke="none" 
	d="
M171.817520,251.008331 
	C171.955185,251.042496 172.120636,251.071976 172.280457,251.053238 
	C174.798584,250.757767 175.436127,252.543808 175.939682,254.419098 
	C175.970932,254.535446 176.222076,255.714828 175.420090,255.130295 
	C174.115417,254.179382 171.929703,253.968307 171.974945,251.280396 
	C171.900436,250.934937 171.842697,250.981232 171.817520,251.008331 
z"/>
<path fill="#B3D2FF" opacity="1.000000" stroke="none" 
	d="
M162.720093,255.947601 
	C163.091553,256.755463 163.611923,257.002228 164.636597,257.092346 
	C163.801804,258.299835 162.591995,257.733612 161.089355,257.122864 
	C161.039581,256.205658 161.601105,255.917633 162.720093,255.947601 
z"/>
<path fill="#B3D2FF" opacity="1.000000" stroke="none" 
	d="
M156.208679,258.029907 
	C156.330612,256.488098 157.862793,256.867798 159.079132,256.675079 
	C158.348648,257.324036 157.463440,257.672699 156.208679,258.029907 
z"/>
</svg>